<?xml version="1.0" standalone="no"?><!DOCTYPE svg PUBLIC "-//W3C//DTD SVG 1.1//EN" "http://www.w3.org/Graphics/SVG/1.1/DTD/svg11.dtd"><svg t="1710667737784" class="icon" viewBox="0 0 1024 1024" version="1.1" xmlns="http://www.w3.org/2000/svg" p-id="8293" xmlns:xlink="http://www.w3.org/1999/xlink" width="200" height="200"><path d="M965.723472 78.85458H70.894293l-27.867457 281.899962-0.154819 589.293486h950.860829V363.850926z" fill="#231815" p-id="8294"></path><path d="M586.235807 141.530553l9.985838 212.811894H431.53272l9.972937-212.811894z" fill="#EBAF46" p-id="8295"></path><path d="M597.22797 354.342447V521.224644l-83.357238-34.58919-83.357238 34.58919-0.025803-166.882197z" fill="#F08B18" p-id="8296"></path><path d="M633.842711 341.814993l-9.960035-200.28444h285.073756l19.778153 200.28444zM403.87169 141.530553l-9.972937 200.28444H107.870278L127.674235 141.530553z" fill="#D5CA90" p-id="8297"></path><path d="M105.54799 887.372055V379.410256h287.370241v198.155676l120.952501-50.225929 120.952501 50.225929-0.025803-198.155676h296.272344V887.372055z" fill="#DFD07B" p-id="8298"></path><path d="M162.482752 723.753962h37.608164v90.646643h-37.608164zM227.571324 723.753962h236.176692v90.646643H227.571324z" fill="#FFFFFF" p-id="8299"></path></svg>