<?xml version="1.0" standalone="no"?><!DOCTYPE svg PUBLIC "-//W3C//DTD SVG 1.1//EN" "http://www.w3.org/Graphics/SVG/1.1/DTD/svg11.dtd"><svg t="1710668662630" class="icon" viewBox="0 0 1024 1024" version="1.1" xmlns="http://www.w3.org/2000/svg" p-id="12490" xmlns:xlink="http://www.w3.org/1999/xlink" width="200" height="200"><path d="M394.727619 758.296381c38.083048 34.718476 48.420571 100.059429 22.918095 144.871619s-111.030857 111.518476-149.162666 76.751238c-38.083048-34.718476-15.213714-158.47619 10.337523-203.239619 25.502476-44.860952 77.190095-53.00419 115.907048-18.383238z" fill="#EFC75E" p-id="12491"></path><path d="M278.918095 761.222095l0.682667 4.144762c11.312762 71.484952 79.335619 120.58819 151.30819 109.226667l2.730667-0.487619a99.57181 99.57181 0 0 0-36.961524-112.493715c-35.303619-26.087619-83.334095-24.868571-117.76-0.390095z" fill="#DEB957" p-id="12492"></path><path d="M542.817524 521.752381c136.338286 99.035429 186.172952 262.582857 92.403809 391.753143l-44.568381 61.391238c-93.817905 129.170286-59.14819-150.77181-195.437714-249.856-136.289524-99.08419-392.289524 21.211429-297.935238-108.739048l44.568381-61.44c93.817905-129.121524 264.679619-132.144762 400.969143-33.158095z" fill="#F26C4F" p-id="12493"></path><path d="M896.390095 69.241905c41.447619 30.134857 61.586286 259.608381-123.221333 514.486857-120.636952 165.059048-202.849524 229.571048-202.849524 229.571048-85.479619 79.823238-138.581333 43.105524-208.700952-7.801905-70.217143-50.95619-122.246095-89.965714-72.021334-195.925334 0 0 36.571429-98.889143 156.428191-264.533333C630.881524 90.843429 854.79619 38.521905 896.390095 69.241905z" fill="#F4F0D3" p-id="12494"></path><path d="M614.790095 751.908571c-87.625143 83.529143-142.482286 44.81219-214.308571-9.216-72.655238-54.613333-125.805714-95.768381-74.703238-208.067047l7.509333-18.432c-20.577524 41.350095-28.769524 64.219429-28.769524 64.219428-49.054476 107.666286 2.535619 147.602286 71.972572 199.875048 69.485714 52.175238 121.953524 89.185524 205.970285 9.020952 0 0 38.180571-31.207619 100.888381-105.081904-43.300571 47.104-68.559238 67.632762-68.559238 67.632762z" fill="#E8E4C8" p-id="12495"></path><path d="M696.515048 362.349714c32.719238 23.79581 39.984762 69.38819 16.14019 102.107429a72.94781 72.94781 0 0 1-102.058667 16.188952 72.94781 72.94781 0 0 1-16.188952-102.107428 72.94781 72.94781 0 0 1 102.107429-16.188953z" fill="#8BA0AB" p-id="12496"></path><path d="M551.643429 577.048381c22.040381 15.993905-3.754667 89.429333-81.724953 196.851809-78.019048 107.422476-130.29181 141.409524-152.380952 124.684191-22.040381-15.993905-6.631619-76.068571 71.387428-183.53981 78.750476-107.52 139.849143-154.575238 162.718477-137.99619z" fill="#F26C4F" p-id="12497"></path><path d="M644.827429 366.543238c14.482286-2.29181 29.257143 1.26781 41.350095 9.947429 12.092952 8.728381 20.041143 21.601524 22.332952 36.035047 2.29181 14.384762-1.316571 29.110857-10.093714 41.106286s-21.796571 19.992381-36.278857 22.28419c-14.482286 2.29181-29.257143-1.26781-41.350095-9.99619a55.003429 55.003429 0 0 1-22.332953-35.986286 55.003429 55.003429 0 0 1 10.142476-41.155047c8.777143-11.995429 21.74781-19.992381 36.230096-22.235429z m-2.730667-17.261714a71.192381 71.192381 0 0 0-47.591619 29.354666c-23.893333 32.670476-16.676571 78.165333 16.14019 101.912381 16.091429 11.605333 35.791238 16.091429 54.320762 13.165715 18.529524-2.925714 35.986286-12.726857 47.591619-29.354667 23.893333-32.670476 16.725333-78.165333-16.091428-101.912381a71.192381 71.192381 0 0 0-54.369524-13.165714z" fill="#324D5B" p-id="12498"></path><path d="M687.981714 106.642286c14.09219 46.031238 48.469333 91.721143 98.499048 126.293333 43.885714 29.793524 91.867429 46.713905 136.825905 49.688381 30.329905-122.977524 12.678095-210.944-12.873143-229.180952-24.722286-17.749333-113.615238-7.265524-222.45181 53.199238z" fill="#F26C4F" p-id="12499"></path></svg>