<?xml version="1.0" encoding="UTF-8" standalone="no"?>
<!-- Created with Inkscape (http://www.inkscape.org/) -->

<svg
   width="560"
   height="560"
   viewBox="0 0 148.16667 148.16667"
   version="1.1"
   id="svg5"
   inkscape:version="1.3.1 (91b66b0783, 2023-11-16)"
   sodipodi:docname="ursa_560x560.svg"
   xmlns:inkscape="http://www.inkscape.org/namespaces/inkscape"
   xmlns:sodipodi="http://sodipodi.sourceforge.net/DTD/sodipodi-0.dtd"
   xmlns="http://www.w3.org/2000/svg"
   xmlns:svg="http://www.w3.org/2000/svg">
  <sodipodi:namedview
     id="namedview7"
     pagecolor="#ffffff"
     bordercolor="#000000"
     borderopacity="0.25"
     inkscape:showpageshadow="2"
     inkscape:pageopacity="0.0"
     inkscape:pagecheckerboard="0"
     inkscape:deskcolor="#d1d1d1"
     inkscape:document-units="mm"
     showgrid="false"
     inkscape:zoom="1.0733976"
     inkscape:cx="269.70435"
     inkscape:cy="257.12746"
     inkscape:window-width="1920"
     inkscape:window-height="1009"
     inkscape:window-x="1072"
     inkscape:window-y="828"
     inkscape:window-maximized="1"
     inkscape:current-layer="layer1"
     showguides="false" />
  <defs
     id="defs2" />
  <g
     inkscape:label="图层 1"
     inkscape:groupmode="layer"
     id="layer1">
    <path
       style="fill:#8b44ac;fill-opacity:1;stroke-width:2.97966"
       d="m 100.35265,82.354006 -11.092124,18.358644 17.500904,21.64134 23.53993,-0.12158 -6.16228,-5.95745 -10.47589,-28.936156 z"
       id="path1564" />
    <path
       id="path1349"
       style="display:inline;fill:#3e4347;fill-opacity:1;stroke-width:2.95471"
       d="m 64.835335,22.355251 c -0.252232,0.0049 -0.418027,0.02606 -0.489376,0.06253 l -0.02119,25.128183 A 25,25 0 0 1 86.260384,72.35375 25,25 0 0 1 64.282397,97.148619 l -0.0217,25.205161 h 19.51405 L 75.815026,114.1765 97.383219,75.355634 132.8162,91.021861 145.39786,78.36837 135.98293,66.575808 133.75775,55.127411 112.01851,31.283905 109.4507,38.170306 C 91.909393,25.922837 68.61881,22.281766 64.835335,22.355251 Z" />
    <path
       d="M 59.609203,122.28419 V 97.273308 A 25,25 0 0 1 34.93474,72.309974 25,25 0 0 1 59.609203,47.34664 V 22.335764 A 50,50 0 0 0 9.9347159,72.309974 50,50 0 0 0 59.609203,122.28419 Z"
       style="fill:#8b44ac;stroke-width:3.64177"
       id="path3" />
    <g
       id="g3"
       transform="translate(14.553697,26.754402)">
      <path
         id="path7668-9"
         style="fill:#ffffff;fill-opacity:1;stroke-width:0.56873"
         d="M 20,9.9999996 A 9.999999,10 0 0 1 9.9999986,20 9.999999,10 0 0 1 0,9.9999996 9.999999,10 0 0 1 9.9999986,0 9.999999,10 0 0 1 20,9.9999996 Z" />
      <path
         id="path7668"
         style="fill:#8b44ac;stroke-width:0.426548"
         d="M 17.5,9.9999996 A 7.4999993,7.5 0 0 1 9.9999986,17.5 7.4999993,7.5 0 0 1 2.5,9.9999996 7.4999993,7.5 0 0 1 9.9999986,2.5 7.4999993,7.5 0 0 1 17.5,9.9999996 Z" />
    </g>
  </g>
</svg>
