<?xml version="1.0" encoding="UTF-8" standalone="no"?>
<!-- Created with Inkscape (http://www.inkscape.org/) -->

<svg
   width="280"
   height="280"
   viewBox="0 0 74.083334 74.083333"
   version="1.1"
   id="svg1"
   inkscape:version="1.3.1 (91b66b0783, 2023-11-16)"
   sodipodi:docname="semi_280x280.svg"
   xmlns:inkscape="http://www.inkscape.org/namespaces/inkscape"
   xmlns:sodipodi="http://sodipodi.sourceforge.net/DTD/sodipodi-0.dtd"
   xmlns="http://www.w3.org/2000/svg"
   xmlns:svg="http://www.w3.org/2000/svg">
  <sodipodi:namedview
     id="namedview1"
     pagecolor="#ffffff"
     bordercolor="#000000"
     borderopacity="0.25"
     inkscape:showpageshadow="2"
     inkscape:pageopacity="0.0"
     inkscape:pagecheckerboard="0"
     inkscape:deskcolor="#d1d1d1"
     inkscape:document-units="mm"
     inkscape:zoom="0.70710678"
     inkscape:cx="-118.79394"
     inkscape:cy="188.0904"
     inkscape:window-width="1920"
     inkscape:window-height="1009"
     inkscape:window-x="1072"
     inkscape:window-y="828"
     inkscape:window-maximized="1"
     inkscape:current-layer="layer1" />
  <defs
     id="defs1" />
  <g
     inkscape:label="图层 1"
     inkscape:groupmode="layer"
     id="layer1">
    <path
       d="M 35.328587,58.105452 V 5.1887849 A 26.458308,26.458309 0 0 0 8.8702539,31.64712 26.458308,26.458309 0 0 0 35.328587,58.105452 Z"
       style="fill:#3e4347;fill-opacity:1;stroke-width:1.4047"
       id="path2" />
    <path
       d="m 39.094254,15.875 v 10.583333 a 15.875,15.875 0 0 1 15.875,15.875 15.875,15.875 0 0 1 -15.875,15.875 v 10.583334 a 26.458308,26.458308 0 0 0 13.17284,-3.513481 7.9375,7.9375 0 0 1 -1.334803,-4.317566 7.9375,7.9375 0 0 1 7.9375,-7.9375 7.9375,7.9375 0 0 1 3.929993,1.047481 A 26.458308,26.458308 0 0 0 65.552588,42.333333 26.458308,26.458308 0 0 0 39.094254,15.875 Z"
       style="fill:#8b44ac;stroke-width:1.4047"
       id="path7" />
    <circle
       style="fill:#8b44ac;fill-opacity:1;stroke-width:3"
       id="path6"
       cx="58.869789"
       cy="60.854168"
       r="5.2916665" />
  </g>
</svg>
